<svg xmlns="http://www.w3.org/2000/svg" viewBox="0 0 1200 520">
  <defs>
    <filter id="blurSoft" x="-20%" y="-20%" width="140%" height="140%">
      <feGaussianBlur stdDeviation="1.2" />
    </filter>
  </defs>
  <g fill="#000" fill-opacity="0.22">
    <ellipse cx="140" cy="120" rx="22" ry="15" />
    <ellipse cx="320" cy="180" rx="18" ry="12" />
    <ellipse cx="610" cy="130" rx="26" ry="18" />
    <ellipse cx="880" cy="210" rx="20" ry="13" />
    <ellipse cx="1060" cy="150" rx="16" ry="11" />
    <ellipse cx="980" cy="390" rx="18" ry="12" />
    <ellipse cx="220" cy="380" rx="14" ry="10" />
  </g>
  <g stroke="#000" stroke-linecap="round" fill="none">
    <path d="M 60 96 C 170 120, 260 148, 388 165 C 520 184, 650 204, 782 216 C 922 228, 1026 234, 1146 232" stroke-opacity="0.2" stroke-width="7"/>
    <path d="M 40 284 C 186 264, 332 250, 474 256 C 618 262, 748 286, 888 304 C 1004 318, 1084 316, 1160 304" stroke-opacity="0.18" stroke-width="6"/>
    <path d="M 80 430 C 212 410, 328 398, 456 402 C 612 408, 742 434, 894 446 C 998 454, 1084 454, 1160 442" stroke-opacity="0.14" stroke-width="5"/>
  </g>
  <g fill="#000" fill-opacity="0.16" filter="url(#blurSoft)">
    <circle cx="370" cy="320" r="28"/>
    <circle cx="760" cy="344" r="24"/>
    <circle cx="520" cy="430" r="20"/>
  </g>
</svg>
